<?xml version="1.0" standalone="no"?>
<!DOCTYPE svg PUBLIC "-//W3C//DTD SVG 20010904//EN"
 "http://www.w3.org/TR/2001/REC-SVG-20010904/DTD/svg10.dtd">
<svg version="1.0" xmlns="http://www.w3.org/2000/svg"
 width="1520.000000pt" height="1520.000000pt" viewBox="0 0 1520.000000 1520.000000"
 preserveAspectRatio="xMidYMid meet">
<metadata>
Created by potrace 1.14, written by Peter Selinger 2001-2017
</metadata>
<g transform="translate(0.000000,1520.000000) scale(0.100000,-0.100000)"
fill="#000000" stroke="none">
<path d="M4249 12056 c-2 -2 -24 -6 -49 -9 -25 -4 -56 -9 -70 -12 -14 -4 -34
-8 -45 -9 -11 -2 -21 -5 -22 -6 -2 -1 -7 -4 -13 -5 -5 -1 -11 -3 -12 -5 -2 -1
-11 -3 -20 -5 -58 -11 -233 -103 -320 -168 -135 -100 -265 -258 -334 -405 -14
-31 -52 -110 -84 -174 -32 -65 -55 -118 -52 -118 4 0 3 -4 -3 -8 -10 -7 -16
-18 -143 -282 -74 -154 -118 -244 -307 -635 -40 -82 -119 -244 -175 -360 -56
-115 -109 -227 -117 -247 -8 -21 -20 -38 -26 -38 -6 0 -7 -3 -4 -7 4 -3 0 -17
-8 -30 -9 -13 -12 -23 -8 -23 5 0 2 -4 -5 -9 -7 -4 -15 -14 -16 -22 -4 -21
-79 -173 -89 -180 -5 -3 -8 -9 -7 -13 1 -7 -44 -109 -61 -136 -5 -8 -14 -26
-20 -40 -5 -13 -41 -89 -80 -167 -163 -336 -207 -429 -214 -450 -3 -13 -11
-23 -16 -23 -5 0 -9 -4 -9 -10 0 -5 -26 -63 -57 -127 -31 -65 -57 -120 -58
-123 -1 -3 -38 -81 -83 -173 -45 -93 -82 -173 -82 -178 0 -5 -4 -9 -10 -9 -5
0 -10 -5 -10 -11 0 -7 -22 -57 -49 -113 -138 -285 -245 -506 -268 -553 -14
-29 -24 -55 -23 -59 1 -4 -2 -10 -7 -13 -11 -7 -85 -158 -89 -180 -1 -8 -8
-17 -14 -21 -7 -4 -11 -10 -10 -14 2 -6 -13 -40 -80 -176 -4 -8 -12 -24 -18
-35 -14 -26 -136 -278 -137 -285 -1 -3 -37 -77 -80 -165 -43 -88 -80 -166 -81
-173 -1 -8 -10 -22 -18 -31 -9 -10 -16 -21 -16 -25 0 -11 -71 -160 -79 -166
-3 -3 -7 -9 -8 -15 -1 -9 -83 -180 -259 -542 -35 -72 -64 -136 -64 -142 0 -6
-4 -11 -10 -11 -5 0 -10 -5 -10 -11 0 -5 -30 -72 -67 -147 -37 -75 -68 -143
-69 -150 -1 -8 -10 -22 -18 -31 -9 -10 -16 -22 -16 -27 0 -6 -12 -35 -26 -65
-15 -30 -28 -61 -29 -69 -2 -8 -4 -16 -5 -17 -2 -2 -4 -7 -5 -13 -1 -5 -4 -12
-5 -15 -1 -3 -4 -9 -5 -15 -1 -5 -4 -13 -5 -17 -1 -5 -3 -12 -4 -18 -1 -5 -5
-21 -9 -35 -21 -81 -32 -314 -17 -390 4 -25 11 -58 14 -75 8 -47 13 -66 36
-130 12 -33 24 -70 27 -82 3 -12 11 -28 19 -34 8 -6 14 -17 14 -23 0 -18 24
-66 33 -66 4 0 7 -7 7 -15 0 -8 5 -15 10 -15 6 0 10 -5 10 -11 0 -28 205 -259
230 -259 4 0 14 -7 21 -16 29 -35 181 -122 274 -157 157 -59 234 -72 405 -71
115 1 202 7 230 17 8 3 42 13 75 22 33 9 69 20 80 25 11 5 47 21 79 35 87 39
187 105 269 178 18 15 35 27 39 27 5 0 8 4 8 9 0 6 20 30 45 55 25 26 45 48
45 51 0 2 19 32 43 67 24 35 54 86 68 113 13 28 28 53 32 56 5 3 8 8 6 10 -1
2 8 23 20 47 12 23 18 42 14 42 -5 0 -3 4 3 8 6 4 27 41 46 82 20 41 60 125
89 185 29 61 52 113 51 117 -1 5 2 8 8 8 5 0 10 4 10 9 0 5 29 69 65 143 36
73 65 138 65 145 0 7 3 13 8 13 4 0 13 15 20 32 21 53 56 123 65 129 5 3 9 10
8 15 0 9 21 54 167 354 49 102 119 246 154 320 36 74 95 196 132 271 36 75 66
140 66 144 0 5 6 16 13 24 8 9 20 32 27 51 7 19 20 43 28 53 8 9 12 17 9 17
-3 0 14 40 39 90 25 49 45 93 45 97 0 5 8 16 17 27 9 10 16 21 16 25 -1 3 23
58 53 121 31 63 59 123 64 135 5 11 13 27 18 35 18 28 161 331 161 340 0 6 4
10 10 10 5 0 9 3 8 8 -1 4 8 26 20 50 12 23 19 42 15 42 -5 0 -3 4 2 8 10 7
31 48 106 207 18 39 37 73 42 76 5 3 8 9 7 13 -1 6 24 61 121 262 27 55 49
106 49 112 0 7 4 12 8 12 8 0 36 60 33 73 0 4 4 7 9 7 5 0 9 3 8 8 -1 4 30 72
69 152 187 385 226 466 226 478 0 6 2 12 3 12 3 0 33 -63 65 -135 5 -11 13
-27 19 -35 5 -8 31 -62 59 -120 27 -58 94 -199 150 -313 56 -114 101 -212 101
-216 0 -5 7 -14 15 -21 9 -7 14 -19 11 -27 -3 -7 -2 -13 2 -13 4 0 14 -15 21
-32 8 -18 63 -132 122 -253 59 -121 138 -285 177 -365 38 -80 100 -208 138
-285 37 -77 69 -142 69 -145 1 -3 43 -90 94 -195 154 -315 185 -380 183 -387
-1 -5 3 -8 8 -8 6 0 10 -5 10 -10 0 -6 39 -90 86 -188 47 -97 113 -233 147
-302 33 -69 94 -195 136 -280 41 -85 76 -157 76 -160 1 -3 41 -86 90 -185 49
-99 89 -182 90 -185 0 -3 32 -70 72 -150 120 -245 154 -319 153 -326 -1 -4 2
-10 7 -13 7 -5 45 -77 48 -91 5 -27 140 -284 183 -348 60 -93 188 -226 275
-287 60 -42 197 -117 238 -130 13 -4 29 -9 34 -11 6 -2 42 -13 80 -23 39 -11
70 -20 70 -21 0 -7 120 -14 240 -14 132 0 162 3 255 28 114 30 247 90 350 158
76 50 224 194 266 258 16 25 34 51 41 57 15 16 173 338 173 352 0 6 4 11 9 11
5 0 12 13 16 30 4 16 11 30 16 30 5 0 9 5 9 12 0 11 28 70 176 374 41 83 74
156 74 162 0 7 5 12 10 12 6 0 10 5 10 11 0 5 32 76 71 157 164 336 203 417
204 422 6 22 81 167 89 172 6 4 8 8 3 8 -4 0 8 30 27 68 57 111 131 266 131
275 0 4 5 11 10 15 6 4 11 12 12 17 1 6 47 105 103 220 56 116 111 230 123
255 11 25 25 48 30 51 5 3 7 8 6 10 -2 2 18 48 44 103 26 54 47 100 47 103 0
3 9 17 19 31 10 15 18 29 18 32 0 3 19 46 43 95 24 50 44 92 45 95 0 3 36 77
80 165 43 88 79 162 80 165 1 3 37 77 80 165 43 88 79 162 80 165 5 18 41 86
48 91 5 3 8 9 7 13 -1 8 58 139 88 191 13 25 137 280 151 315 6 14 15 32 20
40 5 8 43 87 86 175 l77 159 30 -69 c17 -39 35 -71 39 -73 5 -2 9 -9 9 -15 0
-6 21 -54 46 -106 26 -53 75 -154 109 -226 80 -166 211 -438 306 -630 40 -82
74 -152 74 -155 1 -3 25 -53 53 -112 29 -58 52 -111 52 -117 0 -6 5 -11 10
-11 6 0 10 -4 10 -9 0 -10 88 -195 236 -496 54 -110 98 -202 99 -205 0 -3 30
-66 67 -140 36 -74 98 -202 138 -285 40 -82 117 -241 171 -353 54 -111 99
-206 101 -210 1 -4 28 -59 59 -122 31 -63 64 -133 74 -155 11 -22 23 -43 28
-46 5 -3 8 -9 8 -13 0 -3 11 -32 26 -63 14 -32 27 -60 28 -63 21 -52 31 -70
38 -70 4 0 5 -4 2 -10 -3 -5 -1 -10 4 -10 6 0 10 -3 9 -7 -1 -5 37 -88 85
-186 48 -99 87 -183 87 -188 0 -5 5 -9 10 -9 6 0 10 -11 10 -25 0 -14 4 -25 9
-25 5 0 13 -10 16 -21 15 -45 236 -493 265 -534 17 -24 30 -46 30 -49 0 -20
204 -225 250 -252 16 -10 30 -22 30 -27 0 -4 4 -5 10 -2 5 3 10 1 10 -4 0 -6
7 -11 15 -11 8 0 15 -4 15 -8 0 -5 16 -14 35 -22 19 -8 35 -17 35 -22 0 -4 6
-8 13 -8 7 0 32 -9 55 -20 22 -11 47 -20 55 -20 7 0 17 -4 23 -9 5 -5 41 -16
79 -25 39 -9 79 -19 90 -22 11 -3 81 -7 155 -9 121 -4 178 1 260 20 14 3 36 7
50 10 14 2 41 10 61 19 20 8 39 12 43 9 3 -4 6 -1 6 5 0 7 6 12 12 12 20 0
118 43 118 52 0 4 6 8 13 8 23 0 172 109 244 179 80 78 158 184 205 276 31 61
77 175 84 208 2 10 5 26 8 35 5 18 12 49 23 117 15 87 6 322 -16 393 -5 17 -8
32 -6 32 2 0 -8 30 -22 67 -14 38 -28 78 -30 91 -3 12 -9 22 -14 22 -5 0 -9 7
-9 15 0 9 -29 74 -64 145 -35 72 -61 130 -57 130 3 0 1 4 -4 8 -6 4 -24 34
-39 67 -16 33 -47 98 -70 145 -22 47 -41 88 -41 92 0 3 -3 10 -8 14 -4 4 -19
33 -33 63 -52 113 -79 166 -89 173 -5 4 -7 8 -3 8 4 0 -15 44 -41 98 -49 98
-128 260 -261 537 -40 83 -94 194 -120 247 -26 53 -46 98 -44 101 3 2 -2 10
-11 17 -8 7 -15 16 -15 20 0 5 -48 107 -106 227 -141 289 -217 447 -220 453
-1 3 -5 15 -9 28 -4 12 -11 22 -16 22 -5 0 -9 5 -9 12 0 11 -29 74 -151 321
-32 64 -55 117 -51 117 4 0 3 4 -3 8 -13 9 -75 134 -75 150 0 7 -4 12 -10 12
-5 0 -10 5 -10 11 0 11 -27 69 -190 404 -51 105 -121 249 -155 320 -34 72
-102 211 -151 310 -48 99 -88 182 -89 185 0 3 -26 57 -57 120 -53 108 -124
255 -310 640 -141 290 -185 385 -186 394 0 5 -4 12 -9 15 -5 3 -20 32 -33 64
-13 31 -27 57 -32 57 -4 0 -7 3 -6 8 2 8 -37 93 -126 272 -35 71 -62 130 -60
133 3 2 -2 10 -11 17 -8 7 -15 16 -15 20 0 9 -113 244 -232 485 -92 186 -165
287 -295 406 -28 25 -160 119 -168 119 -4 0 -20 9 -36 21 -16 11 -29 17 -29
14 0 -4 -10 -1 -22 7 -24 15 -130 57 -161 63 -9 2 -20 6 -25 8 -4 3 -23 8 -42
11 -19 3 -57 10 -85 15 -53 10 -290 8 -340 -4 -16 -3 -48 -11 -70 -16 -22 -5
-44 -11 -50 -12 -5 -1 -16 -6 -22 -10 -7 -5 -13 -6 -13 -3 0 5 -102 -36 -175
-70 -22 -11 -49 -27 -59 -36 -11 -10 -23 -18 -27 -18 -13 0 -148 -109 -194
-157 -25 -26 -66 -75 -90 -108 -45 -63 -138 -215 -130 -215 2 0 -22 -53 -54
-117 -127 -257 -186 -378 -186 -385 0 -4 -6 -13 -12 -20 -7 -6 -13 -16 -13
-21 0 -5 -34 -79 -75 -164 -41 -85 -75 -158 -75 -164 0 -5 -4 -9 -10 -9 -5 0
-10 -6 -10 -13 0 -7 -20 -53 -44 -103 -43 -87 -206 -422 -279 -575 -21 -42
-37 -81 -37 -88 0 -6 -3 -11 -8 -11 -4 0 -13 -15 -21 -32 -8 -18 -33 -72 -57
-120 -24 -49 -40 -88 -36 -88 4 0 1 -4 -6 -9 -7 -4 -14 -15 -16 -23 -1 -8 -9
-27 -19 -41 -9 -15 -17 -33 -17 -40 0 -8 -7 -20 -15 -27 -8 -7 -15 -16 -15
-20 0 -14 -73 -165 -82 -171 -6 -3 -9 -10 -8 -15 2 -12 -92 -207 -105 -216 -5
-4 -7 -8 -3 -8 4 0 -10 -35 -32 -77 -41 -82 -183 -374 -280 -578 -32 -66 -100
-208 -152 -315 -181 -371 -222 -455 -223 -460 -5 -18 -52 -106 -60 -112 -5 -4
-7 -8 -2 -8 4 0 -6 -25 -23 -56 -16 -31 -30 -62 -30 -69 0 -7 -7 -18 -15 -25
-8 -6 -14 -15 -13 -18 1 -4 -43 -99 -97 -211 l-99 -203 -88 178 c-48 99 -95
198 -104 222 -9 23 -21 42 -25 42 -5 0 -9 5 -9 12 0 10 -15 42 -152 323 -32
66 -58 125 -58 132 0 7 -3 13 -8 13 -4 0 -18 24 -31 53 -23 52 -69 146 -236
492 -48 99 -120 248 -160 330 -40 83 -101 209 -136 280 -35 72 -62 133 -61
138 1 4 -3 7 -9 7 -5 0 -8 4 -5 9 4 5 1 11 -4 13 -6 2 -12 10 -13 18 -2 8 -29
69 -61 135 -64 131 -189 389 -296 610 -37 77 -106 219 -153 315 -46 96 -84
177 -83 180 0 3 -9 20 -22 38 -13 17 -21 32 -19 32 3 0 -22 55 -54 121 -33 67
-87 178 -120 248 -34 69 -70 146 -82 171 -12 25 -26 48 -32 52 -5 4 -7 8 -3 8
4 0 -4 20 -18 45 -13 25 -21 45 -17 45 4 0 3 4 -3 8 -5 4 -19 27 -31 52 -78
169 -192 394 -222 440 -48 73 -50 76 -138 175 -48 55 -220 185 -244 185 -5 0
-9 5 -9 10 0 6 -4 10 -10 10 -5 0 -36 12 -67 28 -32 15 -78 34 -103 41 -25 7
-52 16 -60 19 -8 3 -19 6 -25 7 -5 1 -23 4 -40 8 -16 4 -41 10 -55 13 -27 7
-286 15 -291 10z"/>
</g>
</svg>
